HIERARCHY
ROOT mixamorig:Hips
{
	OFFSET 0.000000 201.639420 0.000000
	CHANNELS 6 Xposition Yposition Zposition Xrotation Yrotation Zrotation
	JOINT mixamorig:Spine
	{
		OFFSET 0.006200 19.524994 -2.481800
		CHANNELS 3 Xrotation Yrotation Zrotation
		JOINT mixamorig:Spine1
		{
			OFFSET -0.000900 22.835007 -2.825400
			CHANNELS 3 Xrotation Yrotation Zrotation
			JOINT mixamorig:Spine2
			{
				OFFSET -0.020600 26.552490 -3.193300
				CHANNELS 3 Xrotation Yrotation Zrotation
				JOINT mixamorig:Neck
				{
					OFFSET -0.060000 30.701813 1.352200
					CHANNELS 3 Xrotation Yrotation Zrotation
					JOINT mixamorig:Head
					{
						OFFSET -0.087200 22.547607 3.670900
						CHANNELS 3 Xrotation Yrotation Zrotation
						JOINT mixamorig:HeadTop_End
						{
							OFFSET -0.830600 40.355194 7.893500
							CHANNELS 3 Xrotation Yrotation Zrotation
							End Site
							{
								OFFSET 0.000000 30.592346 0.000000
							}
						}
						JOINT mixamorig:RightEye
						{
							OFFSET -6.302100 18.118591 16.197100
							CHANNELS 3 Xrotation Yrotation Zrotation
							End Site
							{
								OFFSET 0.000000 30.592346 0.000000
							}
						}
						JOINT mixamorig:LeftEye
						{
							OFFSET 6.741500 18.382690 16.401899
							CHANNELS 3 Xrotation Yrotation Zrotation
							End Site
							{
								OFFSET 0.000000 30.592346 0.000000
							}
						}
					}
				}
				JOINT mixamorig:LeftShoulder
				{
					OFFSET 11.924900 18.230499 1.425400
					CHANNELS 3 Xrotation Yrotation Zrotation
					JOINT mixamorig:LeftArm
					{
						OFFSET 25.435989 -0.697632 -5.229300
						CHANNELS 3 Xrotation Yrotation Zrotation
						JOINT mixamorig:LeftForeArm
						{
							OFFSET 54.684776 0.000000 0.000000
							CHANNELS 3 Xrotation Yrotation Zrotation
							JOINT mixamorig:LeftHand
							{
								OFFSET 55.098175 0.000000 0.000000
								CHANNELS 3 Xrotation Yrotation Zrotation
								JOINT mixamorig:LeftHandMiddle1
								{
									OFFSET 23.369751 0.000000 0.000000
									CHANNELS 3 Xrotation Yrotation Zrotation
									JOINT mixamorig:LeftHandMiddle2
									{
										OFFSET 6.378677 0.000000 0.000000
										CHANNELS 3 Xrotation Yrotation Zrotation
										JOINT mixamorig:LeftHandMiddle3
										{
											OFFSET 6.148331 0.000000 0.000000
											CHANNELS 3 Xrotation Yrotation Zrotation
											JOINT mixamorig:LeftHandMiddle4
											{
												OFFSET 6.582504 0.000000 0.000000
												CHANNELS 3 Xrotation Yrotation Zrotation
												End Site
												{
													OFFSET -1.168900 6.395691 1.028606
												}
											}
										}
									}
								}
								JOINT mixamorig:LeftHandThumb1
								{
									OFFSET 7.235672 -3.848206 5.434273
									CHANNELS 3 Xrotation Yrotation Zrotation
									JOINT mixamorig:LeftHandThumb2
									{
										OFFSET 6.568451 -3.792297 3.792300
										CHANNELS 3 Xrotation Yrotation Zrotation
										JOINT mixamorig:LeftHandThumb3
										{
											OFFSET 6.063080 -3.500519 3.500518
											CHANNELS 3 Xrotation Yrotation Zrotation
											JOINT mixamorig:LeftHandThumb4
											{
												OFFSET 4.793182 -2.767334 2.767349
												CHANNELS 3 Xrotation Yrotation Zrotation
												End Site
												{
													OFFSET 0.101639 6.054260 1.275483
												}
											}
										}
									}
								}
								JOINT mixamorig:LeftHandIndex1
								{
									OFFSET 23.101074 -0.309540 4.992809
									CHANNELS 3 Xrotation Yrotation Zrotation
									JOINT mixamorig:LeftHandIndex2
									{
										OFFSET 6.226883 0.000000 0.000000
										CHANNELS 3 Xrotation Yrotation Zrotation
										JOINT mixamorig:LeftHandIndex3
										{
											OFFSET 6.094330 0.000000 0.000000
											CHANNELS 3 Xrotation Yrotation Zrotation
											JOINT mixamorig:LeftHandIndex4
											{
												OFFSET 5.482605 0.000000 0.000000
												CHANNELS 3 Xrotation Yrotation Zrotation
												End Site
												{
													OFFSET -1.427902 5.233032 0.797164
												}
											}
										}
									}
								}
								JOINT mixamorig:LeftHandRing1
								{
									OFFSET 22.299240 0.021149 -3.964172
									CHANNELS 3 Xrotation Yrotation Zrotation
									JOINT mixamorig:LeftHandRing2
									{
										OFFSET 6.321869 0.000000 0.000000
										CHANNELS 3 Xrotation Yrotation Zrotation
										JOINT mixamorig:LeftHandRing3
										{
											OFFSET 5.899796 0.000000 0.000000
											CHANNELS 3 Xrotation Yrotation Zrotation
											JOINT mixamorig:LeftHandRing4
											{
												OFFSET 6.517899 0.000000 0.000000
												CHANNELS 3 Xrotation Yrotation Zrotation
												End Site
												{
													OFFSET -1.637299 6.232208 0.980890
												}
											}
										}
									}
								}
								JOINT mixamorig:LeftHandPinky1
								{
									OFFSET 20.463791 -0.302338 -8.562233
									CHANNELS 3 Xrotation Yrotation Zrotation
									JOINT mixamorig:LeftHandPinky2
									{
										OFFSET 6.908646 0.000000 0.000000
										CHANNELS 3 Xrotation Yrotation Zrotation
										JOINT mixamorig:LeftHandPinky3
										{
											OFFSET 4.622849 0.000000 0.000000
											CHANNELS 3 Xrotation Yrotation Zrotation
											JOINT mixamorig:LeftHandPinky4
											{
												OFFSET 5.216080 0.000000 0.000000
												CHANNELS 3 Xrotation Yrotation Zrotation
												End Site
												{
													OFFSET -0.606308 5.116241 0.814926
												}
											}
										}
									}
								}
							}
						}
					}
				}
				JOINT mixamorig:RightShoulder
				{
					OFFSET -12.001300 18.284088 1.348900
					CHANNELS 3 Xrotation Yrotation Zrotation
					JOINT mixamorig:RightArm
					{
						OFFSET -25.308500 -0.751312 -5.164599
						CHANNELS 3 Xrotation Yrotation Zrotation
						JOINT mixamorig:RightForeArm
						{
							OFFSET -54.684429 0.000000 0.000000
							CHANNELS 3 Xrotation Yrotation Zrotation
							JOINT mixamorig:RightHand
							{
								OFFSET -55.150291 0.000000 0.000000
								CHANNELS 3 Xrotation Yrotation Zrotation
								JOINT mixamorig:RightHandMiddle1
								{
									OFFSET -23.317566 0.000000 0.000000
									CHANNELS 3 Xrotation Yrotation Zrotation
									JOINT mixamorig:RightHandMiddle2
									{
										OFFSET -6.378403 0.000000 0.000000
										CHANNELS 3 Xrotation Yrotation Zrotation
										JOINT mixamorig:RightHandMiddle3
										{
											OFFSET -6.148193 0.000000 0.000000
											CHANNELS 3 Xrotation Yrotation Zrotation
											JOINT mixamorig:RightHandMiddle4
											{
												OFFSET -6.583389 0.000000 0.000000
												CHANNELS 3 Xrotation Yrotation Zrotation
												End Site
												{
													OFFSET 1.171692 6.395905 1.029786
												}
											}
										}
									}
								}
								JOINT mixamorig:RightHandThumb1
								{
									OFFSET -7.190521 -3.860474 5.435846
									CHANNELS 3 Xrotation Yrotation Zrotation
									JOINT mixamorig:RightHandThumb2
									{
										OFFSET -6.567429 -3.791718 3.791708
										CHANNELS 3 Xrotation Yrotation Zrotation
										JOINT mixamorig:RightHandThumb3
										{
											OFFSET -6.062469 -3.500153 3.500166
											CHANNELS 3 Xrotation Yrotation Zrotation
											JOINT mixamorig:RightHandThumb4
											{
												OFFSET -4.792618 -2.767029 2.767022
												CHANNELS 3 Xrotation Yrotation Zrotation
												End Site
												{
													OFFSET -0.100327 6.053253 1.276754
												}
											}
										}
									}
								}
								JOINT mixamorig:RightHandIndex1
								{
									OFFSET -23.048981 -0.310791 4.992554
									CHANNELS 3 Xrotation Yrotation Zrotation
									JOINT mixamorig:RightHandIndex2
									{
										OFFSET -6.227539 0.000000 0.000000
										CHANNELS 3 Xrotation Yrotation Zrotation
										JOINT mixamorig:RightHandIndex3
										{
											OFFSET -6.095047 0.000000 0.000000
											CHANNELS 3 Xrotation Yrotation Zrotation
											JOINT mixamorig:RightHandIndex4
											{
												OFFSET -5.484772 0.000000 0.000000
												CHANNELS 3 Xrotation Yrotation Zrotation
												End Site
												{
													OFFSET 1.420593 5.237305 0.797056
												}
											}
										}
									}
								}
								JOINT mixamorig:RightHandRing1
								{
									OFFSET -22.246323 0.020569 -3.963762
									CHANNELS 3 Xrotation Yrotation Zrotation
									JOINT mixamorig:RightHandRing2
									{
										OFFSET -6.322128 0.000000 0.000000
										CHANNELS 3 Xrotation Yrotation Zrotation
										JOINT mixamorig:RightHandRing3
										{
											OFFSET -5.900024 0.000000 0.000000
											CHANNELS 3 Xrotation Yrotation Zrotation
											JOINT mixamorig:RightHandRing4
											{
												OFFSET -6.518356 0.000000 0.000000
												CHANNELS 3 Xrotation Yrotation Zrotation
												End Site
												{
													OFFSET 1.636398 6.232697 0.982186
												}
											}
										}
									}
								}
								JOINT mixamorig:RightHandPinky1
								{
									OFFSET -20.411011 -0.303314 -8.561701
									CHANNELS 3 Xrotation Yrotation Zrotation
									JOINT mixamorig:RightHandPinky2
									{
										OFFSET -6.907349 0.000000 0.000000
										CHANNELS 3 Xrotation Yrotation Zrotation
										JOINT mixamorig:RightHandPinky3
										{
											OFFSET -4.623840 0.000000 0.000000
											CHANNELS 3 Xrotation Yrotation Zrotation
											JOINT mixamorig:RightHandPinky4
											{
												OFFSET -5.218353 0.000000 0.000000
												CHANNELS 3 Xrotation Yrotation Zrotation
												End Site
												{
													OFFSET 0.602097 5.118835 0.816273
												}
											}
										}
									}
								}
							}
						}
					}
				}
			}
		}
	}
	JOINT mixamorig:LeftUpLeg
	{
		OFFSET 18.168400 -13.561905 -0.039000
		CHANNELS 3 Xrotation Yrotation Zrotation
		JOINT mixamorig:LeftLeg
		{
			OFFSET 0.577358 -80.825211 -3.695000
			CHANNELS 3 Xrotation Yrotation Zrotation
			JOINT mixamorig:LeftFoot
			{
				OFFSET -0.577356 -83.370262 -6.520700
				CHANNELS 3 Xrotation Yrotation Zrotation
				JOINT mixamorig:LeftToeBase
				{
					OFFSET 0.750401 -20.798306 25.135401
					CHANNELS 3 Xrotation Yrotation Zrotation
					JOINT mixamorig:LeftToe_End
					{
						OFFSET -0.000500 0.001200 19.917799
						CHANNELS 3 Xrotation Yrotation Zrotation
						End Site
						{
							OFFSET 0.000000 19.917805 0.000000
						}
					}
				}
			}
		}
	}
	JOINT mixamorig:RightUpLeg
	{
		OFFSET -18.162500 -13.585098 -0.041000
		CHANNELS 3 Xrotation Yrotation Zrotation
		JOINT mixamorig:RightLeg
		{
			OFFSET -0.595024 -80.945297 -3.631900
			CHANNELS 3 Xrotation Yrotation Zrotation
			JOINT mixamorig:RightFoot
			{
				OFFSET 0.595024 -83.218193 -6.561200
				CHANNELS 3 Xrotation Yrotation Zrotation
				JOINT mixamorig:RightToeBase
				{
					OFFSET -0.753601 -20.807106 25.115000
					CHANNELS 3 Xrotation Yrotation Zrotation
					JOINT mixamorig:RightToe_End
					{
						OFFSET 0.000299 0.001700 19.918200
						CHANNELS 3 Xrotation Yrotation Zrotation
						End Site
						{
							OFFSET 0.000000 19.918203 0.000000
						}
					}
				}
			}
		}
	}
}
MOTION
Frames: 4
Frame Time: 0.033333
5.390465 153.766891 -1.052983 1.971036 -19.915081 7.674395 -5.592286 11.268405 -5.558427 2.331518 1.403038 -1.922606 2.346620 1.450985 -1.865963 9.560093 -0.225059 -0.259727 15.650115 0.224706 -6.423718 -0.000000 0.000000 -0.000000 -0.000000 0.000000 -0.000000 -0.000000 0.000000 -0.000000 -0.256535 -0.785125 25.100609 30.955507 -17.058577 -1.090170 -0.000110 -77.161207 -0.000126 46.718197 -47.610291 -16.299854 0.203096 1.663246 -13.922749 0.200241 1.651687 -13.824011 0.108465 1.219777 -10.162258 -0.000002 0.000000 0.000001 -2.070121 20.070366 8.690501 4.272244 11.917712 1.052377 -0.579464 1.574998 2.538716 0.000001 -0.000001 -0.000000 0.295223 1.998368 -16.805803 0.106659 1.209686 -10.077232 0.047417 0.808404 -6.714528 0.000003 0.000000 -0.000000 0.214076 1.706911 -14.296107 0.324831 2.093853 -17.635197 0.191796 1.616969 -13.527704 -0.000000 0.000000 -0.000002 1.574559 5.991648 -17.527276 0.512963 -1.457911 -22.584755 0.241458 1.810917 -15.188140 0.000000 0.000000 0.000002 -2.250689 -8.834944 -10.459566 32.656897 21.047376 -23.094084 0.001631 91.300170 -0.001617 40.112099 17.490386 0.004932 0.651905 -2.950894 26.638243 0.570703 -2.763414 23.332795 -0.085070 -2.182101 17.151416 -0.000001 -0.000000 0.000002 -3.238731 -15.924043 -12.327239 5.225004 -15.134683 -0.677715 -1.273756 0.137313 -2.094869 0.000001 0.000000 -0.000001 -1.266400 -0.294926 34.516853 0.441779 -2.443299 20.495294 0.199160 -1.655423 13.718309 -0.000000 -0.000000 0.000000 2.373729 -6.602797 24.959582 0.670547 -2.984006 25.324284 -0.269392 -2.584438 19.598714 0.000000 0.000001 0.000005 5.431836 -11.347247 29.340150 0.798590 -3.240418 27.682545 0.438371 -2.434191 20.415357 -0.000003 0.000002 -0.000003 -30.501340 4.209007 13.647873 78.171037 -3.736812 -4.157018 -44.000188 18.527464 -11.908808 -1.674736 0.000001 -0.000001 0.000000 0.000001 -0.000000 -50.100366 10.942399 -16.383824 83.082790 -6.363447 -9.262274 -35.316159 4.279192 23.206746 -2.415796 -0.000001 0.000005 -0.000000 -0.000000 0.000000 
5.851896 154.702087 -1.329110 2.681606 -24.950270 9.465959 -4.415232 14.839371 -6.901323 1.765893 1.898324 -2.363115 1.795361 1.948265 -2.297404 10.849527 -0.360120 0.513842 16.577578 0.656246 -6.849013 -0.000002 0.000000 0.000000 -0.000002 0.000000 0.000000 -0.000002 0.000000 0.000000 -0.352405 -0.903794 30.535986 22.327284 -16.814346 -7.766915 0.000013 -77.355540 0.000001 47.720940 -49.764024 -13.285572 0.209257 1.687890 -14.133411 0.204967 1.670781 -13.987147 0.110428 1.230709 -10.254293 0.000001 0.000000 0.000000 -2.070132 20.070366 8.690501 4.272245 11.917717 1.052378 -0.579465 1.574997 2.538713 0.000001 -0.000002 -0.000000 0.302597 2.022604 -17.016008 0.108889 1.222151 -10.182236 0.048166 0.814696 -6.767050 -0.000003 0.000000 0.000001 0.221909 1.737344 -14.556748 0.332941 2.119147 -17.855624 0.195373 1.631767 -13.653974 0.000001 0.000001 -0.000000 1.613574 6.025952 -17.899996 0.524993 -1.429196 -22.842391 0.245507 1.825772 -15.315854 -0.000001 0.000001 -0.000001 -2.786304 -9.704597 -12.618951 31.010882 20.818113 -26.726059 0.005646 90.887852 -0.006004 38.135313 17.134622 -3.323633 0.534621 -2.685566 24.253761 0.493708 -2.577849 21.680791 -0.204779 -2.094172 16.234929 0.000001 0.000002 -0.000002 -3.238721 -15.924069 -12.327241 5.225004 -15.134680 -0.677711 -1.273753 0.137315 -2.094867 0.000001 -0.000000 -0.000001 -1.266959 0.278763 30.544667 0.360690 -2.214475 18.500022 0.171389 -1.537260 12.721555 -0.000000 -0.000001 -0.000002 2.223122 -6.496042 23.639749 0.622781 -2.881033 24.390720 -0.376352 -2.546956 19.071480 0.000003 0.000004 -0.000003 5.320451 -11.331819 28.774235 0.779405 -3.203665 27.341387 0.431197 -2.414750 20.245022 -0.000004 -0.000002 -0.000002 -29.328303 10.037880 14.662179 76.527652 -2.403402 -3.930286 -43.392472 17.152770 -12.762265 -0.451237 0.000000 -0.000005 0.000000 -0.000000 -0.000000 -51.332584 15.230818 -13.367595 82.308547 -6.636247 -9.329449 -33.690106 4.066742 23.301870 -1.669639 0.000002 -0.000003 0.000000 -0.000000 -0.000000 
6.202110 155.926163 -1.765369 2.571333 -24.472189 10.250126 -4.178165 14.520658 -7.864246 1.919288 1.820926 -2.698214 1.954558 1.880966 -2.633596 11.768138 -0.596980 1.643682 18.512943 1.017324 -7.818191 -0.000003 0.000000 0.000000 -0.000003 0.000000 0.000000 -0.000003 0.000000 0.000000 -0.417627 -1.012139 35.089066 12.752185 -15.733942 -14.923277 0.000013 -75.330689 0.000022 48.530007 -50.559785 -10.862973 0.215747 1.713497 -14.352514 0.209861 1.690278 -14.153849 0.112479 1.241955 -10.349117 -0.000000 0.000003 -0.000001 -2.070145 20.070371 8.690522 4.272245 11.917714 1.052377 -0.579466 1.574995 2.538713 -0.000001 0.000001 0.000000 0.311762 2.052330 -17.274057 0.111652 1.237453 -10.311157 0.049086 0.822417 -6.831532 -0.000002 -0.000001 0.000002 0.228960 1.764300 -14.787804 0.340188 2.141510 -18.050669 0.198638 1.645138 -13.768122 -0.000000 -0.000001 0.000002 1.644964 6.053227 -18.198359 0.534975 -1.405636 -23.054153 0.248995 1.838478 -15.425111 -0.000003 0.000002 -0.000002 -3.173348 -10.532001 -14.183298 27.943467 21.222733 -28.951174 -0.009150 89.569462 0.008989 36.957218 17.601392 -4.597682 0.386652 -2.298920 20.850573 0.391275 -2.303765 19.275631 -0.318468 -1.943443 14.893829 0.000001 -0.000001 0.000001 -3.238708 -15.924041 -12.327234 5.224999 -15.134675 -0.677712 -1.273752 0.137316 -2.094868 -0.000001 0.000000 0.000000 -1.212267 0.989574 25.607523 0.271123 -1.926390 16.021228 0.139748 -1.389778 11.482998 -0.000002 0.000003 0.000002 1.929573 -6.272562 20.999261 0.528212 -2.662897 22.435466 -0.482879 -2.423799 17.965098 -0.000003 0.000000 0.000001 4.828630 -11.251619 26.261714 0.696942 -3.039066 25.826658 0.399878 -2.328208 19.488613 0.000003 0.000000 -0.000003 -29.155981 11.406654 14.530131 75.082323 -3.283494 -3.958235 -42.343809 16.539935 -12.089915 -0.648735 -0.000004 0.000006 0.000000 -0.000000 -0.000000 -50.692134 15.397596 -14.566645 80.961893 -7.553922 -9.530031 -33.165677 5.451640 24.020583 -1.603714 0.000002 -0.000003 -0.000000 -0.000002 -0.000000 
5.576260 156.644928 -2.034980 2.337606 -19.229452 9.775723 -4.952542 10.685396 -7.679568 2.543698 1.252311 -2.611220 2.568807 1.321956 -2.556142 12.325739 -0.818192 2.507996 20.700406 0.984220 -8.212780 -0.000002 0.000000 0.000000 -0.000002 0.000000 0.000000 -0.000002 0.000000 0.000000 -0.492460 -0.957231 37.271540 4.836892 -14.489934 -18.291349 -0.000022 -71.445199 -0.000000 47.686612 -51.732850 -9.504504 0.223130 1.742032 -14.596953 0.215451 1.712311 -14.342354 0.114830 1.254802 -10.457306 -0.000001 0.000001 -0.000000 -2.070120 20.070374 8.690503 4.272242 11.917709 1.052377 -0.579463 1.574997 2.538716 0.000001 -0.000000 0.000002 0.321939 2.084728 -17.555826 0.114715 1.254166 -10.451969 0.050106 0.830859 -6.901926 -0.000001 -0.000003 -0.000001 0.237164 1.795055 -15.051727 0.348749 2.167568 -18.278264 0.202525 1.660944 -13.903148 0.000001 0.000001 -0.000001 1.681624 6.084712 -18.545075 0.547023 -1.377512 -23.307450 0.253283 1.853933 -15.558112 -0.000001 0.000001 0.000001 -3.763544 -12.195815 -15.613893 23.983680 23.905667 -29.911649 -0.000080 85.890544 0.000129 36.659186 18.793129 -4.071979 0.260825 -1.900388 17.416678 0.298348 -2.018755 16.812044 -0.381775 -1.771839 13.515527 -0.000001 -0.000002 0.000002 -3.238725 -15.924046 -12.327234 5.225001 -15.134682 -0.677712 -1.273755 0.137317 -2.094869 0.000000 -0.000000 -0.000000 -1.111821 1.618440 21.195363 0.201736 -1.665991 13.807601 0.114176 -1.257483 10.376681 0.000001 -0.000001 -0.000002 1.582432 -5.978834 17.746240 0.419926 -2.384098 19.976512 -0.544880 -2.243319 16.572904 0.000001 -0.000001 -0.000004 4.080256 -11.086943 22.398586 0.578595 -2.781704 23.496582 0.353984 -2.194228 18.324752 -0.000003 -0.000000 0.000001 -29.296365 3.564279 14.759019 74.151880 -3.478730 -9.937448 -40.953982 15.235811 -11.236101 -5.126639 -0.000005 -0.000004 -0.000000 -0.000000 0.000000 -48.611399 13.406283 -16.302994 80.636230 -6.919017 -9.392984 -33.332672 1.753202 23.424282 -1.676811 -0.000002 -0.000002 0.000000 -0.000002 -0.000000 
